# xmcd CD database file
#
# Track frame offsets:
#	150
#	30075
#	49025
#	63825
#	77288
#	88113
#	104525
#	122025
#	138100
#	149650
#	163825
#	177500
#	192363
#	204625
#	224288
#	238788
#	252038
#	268800
#	282138
#	293325
#
# Disc length: 4066 seconds
#
# Revision: 0
# Processed by: cddbd v1.4PL0 Copyright (c) Steve Scherf et al.
# Submitted via: CDex 1.50Beta7
#
DISCID=210fe014
DTITLE=Various Artist - Country Special
DYEAR=1998
DGENRE=Country
TTITLE0=Sutter's Mill by Dan Fogelberg
TTITLE1=Islands in the Stream by Kenny Rogers and Dolly Parton
TTITLE2=(There's No) Getting Over Me by Ronnie Milsap
TTITLE3=An American Dream by Dirt Band
TTITLE4=Al I Have To Do Is Dream by Juice Newton
TTITLE5=You Needed Me by Anne Murray
TTITLE6=Lady by Kenny Rogers
TTITLE7=Always On My Mind by Willie Nelson
TTITLE8=Don't It Make My Brown Eyes Blue by Crystal Gayle
TTITLE9=Heart Of Gold by Willie Nelson
TTITLE10=Southern Nights by Glen Campbell
TTITLE11=Rhinestone Cowboy by Glen Campbell
TTITLE12=Mountain Music by Alabama
TTITLE13=Coward of the County by Kenny Rogers
TTITLE14=Take Me Home Country Roads by John Denver
TTITLE15=If Not For You by Olivia Newton-John
TTITLE16=Jambalaya (to the Bayou) by Carpenters
TTITLE17=When You're in Love with a Beautiful Woman by Dr. Hook
TTITLE18=Silver Threads and Golden Needles by Linda Rondstadt
TTITLE19=Neverending Song of Love by Crystal Gayle
EXTD=YEAR: 1998
EXTT0=
EXTT1=
EXTT2=
EXTT3=
EXTT4=
EXTT5=
EXTT6=
EXTT7=
EXTT8=
EXTT9=
EXTT10=
EXTT11=
EXTT12=
EXTT13=
EXTT14=
EXTT15=
EXTT16=
EXTT17=
EXTT18=
EXTT19=
PLAYORDER=
